<?xml version="1.0" encoding="UTF-8" standalone="no"?>
<svg
   xmlns:dc="http://purl.org/dc/elements/1.1/"
   xmlns:cc="http://creativecommons.org/ns#"
   xmlns:rdf="http://www.w3.org/1999/02/22-rdf-syntax-ns#"
   xmlns:svg="http://www.w3.org/2000/svg"
   xmlns="http://www.w3.org/2000/svg"
   viewBox="0 0 2267.7334 720"
   height="720"
   width="2267.7334"
   xml:space="preserve"
   id="svg2"
   version="1.1"><metadata
     id="metadata8"><rdf:RDF><cc:Work
         rdf:about=""><dc:format>image/svg+xml</dc:format><dc:type
           rdf:resource="http://purl.org/dc/dcmitype/StillImage" /></cc:Work></rdf:RDF></metadata><defs
     id="defs6"><clipPath
       id="clipPath18"
       clipPathUnits="userSpaceOnUse"><path
         style="clip-rule:evenodd"
         id="path16"
         d="M 0,1.2207e-4 H 1700.8 V 540.00012 H 0 Z" /></clipPath><clipPath
       id="clipPath28"
       clipPathUnits="userSpaceOnUse"><path
         style="clip-rule:evenodd"
         id="path26"
         d="M -6.2399e-5,540 H 1700.8 V 3.0518e-4 L -1.9437e-5,1.2207e-4" /></clipPath><clipPath
       id="clipPath38"
       clipPathUnits="userSpaceOnUse"><path
         style="clip-rule:evenodd"
         id="path36"
         d="M -6.2399e-5,540 H 1700.8 V 3.0518e-4 L -1.9437e-5,1.2207e-4" /></clipPath><clipPath
       id="clipPath52"
       clipPathUnits="userSpaceOnUse"><path
         style="clip-rule:evenodd"
         id="path50"
         d="M -4.657e-5,540 H 1700.8 V 1.2207e-4 H -6.7431e-5" /></clipPath><clipPath
       id="clipPath62"
       clipPathUnits="userSpaceOnUse"><path
         style="clip-rule:evenodd"
         id="path60"
         d="M -1.1119e-4,540 H 1700.8 V 1.2207e-4 H -2.6761e-4" /></clipPath><clipPath
       id="clipPath76"
       clipPathUnits="userSpaceOnUse"><path
         style="clip-rule:evenodd"
         id="path74"
         d="M -7.8966e-5,540 H 1700.8 V 1.2207e-4 H -1.0558e-4" /></clipPath><clipPath
       id="clipPath86"
       clipPathUnits="userSpaceOnUse"><path
         style="clip-rule:evenodd"
         id="path84"
         d="M -1.2414e-4,540 H 1700.8 V 1.2207e-4 L -2.0192e-4,6.1035e-5" /></clipPath><clipPath
       id="clipPath100"
       clipPathUnits="userSpaceOnUse"><path
         style="clip-rule:evenodd"
         id="path98"
         d="M -8.3537e-5,540 H 1700.8 V -1.8311e-4 L -9.2216e-5,-1.2207e-4" /></clipPath><clipPath
       id="clipPath110"
       clipPathUnits="userSpaceOnUse"><path
         style="clip-rule:evenodd"
         id="path108"
         d="M -1.4617e-5,540 H 1700.8 V -2.4414e-4 L -2.3297e-5,-1.8311e-4" /></clipPath><clipPath
       id="clipPath122"
       clipPathUnits="userSpaceOnUse"><path
         style="clip-rule:evenodd"
         id="path120"
         d="M 2.5344e-5,0 H 1700.8 V 540 H 2.5344e-5 Z" /></clipPath><clipPath
       id="clipPath134"
       clipPathUnits="userSpaceOnUse"><path
         style="clip-rule:evenodd"
         id="path132"
         d="M 2.5344e-5,0 H 1700.8 V 540 H 2.5344e-5 Z" /></clipPath><clipPath
       id="clipPath146"
       clipPathUnits="userSpaceOnUse"><path
         style="clip-rule:evenodd"
         id="path144"
         d="M 2.5344e-5,0 H 1700.8 V 540 H 2.5344e-5 Z" /></clipPath><clipPath
       id="clipPath158"
       clipPathUnits="userSpaceOnUse"><path
         style="clip-rule:evenodd"
         id="path156"
         d="M 2.5344e-5,0 H 1700.8 V 540 H 2.5344e-5 Z" /></clipPath><clipPath
       id="clipPath174"
       clipPathUnits="userSpaceOnUse"><path
         style="clip-rule:evenodd"
         id="path172"
         d="M 2.5344e-5,0 H 1700.8 V 540 H 2.5344e-5 Z" /></clipPath><clipPath
       id="clipPath190"
       clipPathUnits="userSpaceOnUse"><path
         style="clip-rule:evenodd"
         id="path188"
         d="M 2.5344e-5,0 H 1700.8 V 540 H 2.5344e-5 Z" /></clipPath><clipPath
       id="clipPath202"
       clipPathUnits="userSpaceOnUse"><path
         style="clip-rule:evenodd"
         id="path200"
         d="M 2.5344e-5,0 H 1700.8 V 540 H 2.5344e-5 Z" /></clipPath><clipPath
       id="clipPath218"
       clipPathUnits="userSpaceOnUse"><path
         style="clip-rule:evenodd"
         id="path216"
         d="M 2.5344e-5,0 H 1700.8 V 540 H 2.5344e-5 Z" /></clipPath><clipPath
       id="clipPath230"
       clipPathUnits="userSpaceOnUse"><path
         style="clip-rule:evenodd"
         id="path228"
         d="M 2.5344e-5,0 H 1700.8 V 540 H 2.5344e-5 Z" /></clipPath><clipPath
       id="clipPath242"
       clipPathUnits="userSpaceOnUse"><path
         style="clip-rule:evenodd"
         id="path240"
         d="M 2.5344e-5,0 H 1700.8 V 540 H 2.5344e-5 Z" /></clipPath><clipPath
       id="clipPath254"
       clipPathUnits="userSpaceOnUse"><path
         style="clip-rule:evenodd"
         id="path252"
         d="M 2.5344e-5,0 H 1700.8 V 540 H 2.5344e-5 Z" /></clipPath><clipPath
       id="clipPath266"
       clipPathUnits="userSpaceOnUse"><path
         style="clip-rule:evenodd"
         id="path264"
         d="M 2.5344e-5,0 H 1700.8 V 540 H 2.5344e-5 Z" /></clipPath><clipPath
       id="clipPath278"
       clipPathUnits="userSpaceOnUse"><path
         style="clip-rule:evenodd"
         id="path276"
         d="M 2.5344e-5,0 H 1700.8 V 540 H 2.5344e-5 Z" /></clipPath><clipPath
       id="clipPath292"
       clipPathUnits="userSpaceOnUse"><path
         style="clip-rule:evenodd"
         id="path290"
         d="M 2.5344e-5,0 H 1700.8 V 540 H 2.5344e-5 Z" /></clipPath><clipPath
       id="clipPath304"
       clipPathUnits="userSpaceOnUse"><path
         style="clip-rule:evenodd"
         id="path302"
         d="M 2.5344e-5,0 H 1700.8 V 540 H 2.5344e-5 Z" /></clipPath><clipPath
       id="clipPath326"
       clipPathUnits="userSpaceOnUse"><path
         style="clip-rule:evenodd"
         id="path324"
         d="M 2.5344e-5,0 H 1700.8 V 540 H 2.5344e-5 Z" /></clipPath><clipPath
       id="clipPath338"
       clipPathUnits="userSpaceOnUse"><path
         style="clip-rule:evenodd"
         id="path336"
         d="M 2.5344e-5,0 H 1700.8 V 540 H 2.5344e-5 Z" /></clipPath></defs><g
     transform="matrix(1.3333333,0,0,-1.3333333,0,720)"
     id="g10"><g
       id="g12"><g
         clip-path="url(#clipPath18)"
         id="g14"><path
           id="path20"
           style="fill:#ffffff;fill-opacity:1;fill-rule:evenodd;stroke:none"
           d="M 0,6.1035e-5 H 1700.8 V 540.00006 H 0 Z" /></g></g><g
       id="g22"><g
         clip-path="url(#clipPath28)"
         id="g24"><path
           id="path30"
           style="fill:#404040;fill-opacity:1;fill-rule:evenodd;stroke:none"
           d="m 1121.81,480.79 131.39,-227.57 -25.98,-15 -131.39,227.57 z" /></g></g><g
       id="g32"><g
         clip-path="url(#clipPath38)"
         id="g34"><path
           id="path40"
           style="fill:none;stroke:#000000;stroke-width:1;stroke-linecap:butt;stroke-linejoin:miter;stroke-miterlimit:10;stroke-dasharray:none;stroke-opacity:1"
           d="m 1121.81,480.79 131.39,-227.57 -25.98,-15 -131.39,227.57 z" /></g></g><path
       id="path42"
       style="fill:#404040;fill-opacity:1;fill-rule:evenodd;stroke:none"
       d="m 1065.7,480.7 c 0,19.88 16.12,36 36,36 19.88,0 36,-16.12 36,-36 0,-19.88 -16.12,-36 -36,-36 -19.88,0 -36,16.12 -36,36 z" /><path
       id="path44"
       style="fill:none;stroke:#000000;stroke-width:1;stroke-linecap:butt;stroke-linejoin:miter;stroke-miterlimit:10;stroke-dasharray:none;stroke-opacity:1"
       d="m 1065.7,480.7 c 0,19.88 16.12,36 36,36 19.88,0 36,-16.12 36,-36 0,-19.88 -16.12,-36 -36,-36 -19.88,0 -36,16.12 -36,36 z" /><g
       id="g46"><g
         clip-path="url(#clipPath52)"
         id="g48"><path
           id="path54"
           style="fill:none;stroke:#000000;stroke-width:30;stroke-linecap:round;stroke-linejoin:round;stroke-miterlimit:10;stroke-dasharray:none;stroke-opacity:1"
           d="M 1242.48,224.51 1133.46,167.29 1187.07,59.374" /></g></g><g
       id="g56"><g
         clip-path="url(#clipPath62)"
         id="g58"><path
           id="path64"
           style="fill:none;stroke:#000000;stroke-width:30;stroke-linecap:round;stroke-linejoin:round;stroke-miterlimit:10;stroke-dasharray:none;stroke-opacity:1"
           d="m 1489.08,223.24 -82.87,-91.05 87.29,-83.076" /></g></g><path
       id="path66"
       style="fill:#404040;fill-opacity:1;fill-rule:evenodd;stroke:none"
       d="m 1209.9,239.07 c 0,13.6 11.03,24.63 24.63,24.63 h 265.34 c 13.6,0 24.63,-11.03 24.63,-24.63 v -30.74 c 0,-13.6 -11.03,-24.63 -24.63,-24.63 h -265.34 c -13.6,0 -24.63,11.03 -24.63,24.63 z" /><path
       id="path68"
       style="fill:none;stroke:#000000;stroke-width:1;stroke-linecap:butt;stroke-linejoin:miter;stroke-miterlimit:10;stroke-dasharray:none;stroke-opacity:1"
       d="m 1209.9,239.07 c 0,13.6 11.03,24.63 24.63,24.63 h 265.34 c 13.6,0 24.63,-11.03 24.63,-24.63 v -30.74 c 0,-13.6 -11.03,-24.63 -24.63,-24.63 h -265.34 c -13.6,0 -24.63,11.03 -24.63,24.63 z" /><g
       id="g70"><g
         clip-path="url(#clipPath76)"
         id="g72"><path
           id="path78"
           style="fill:none;stroke:#7f7f7f;stroke-width:30;stroke-linecap:round;stroke-linejoin:round;stroke-miterlimit:10;stroke-dasharray:none;stroke-opacity:1"
           d="M 1491.05,224.51 1382.03,167.29 1435.64,59.374" /></g></g><g
       id="g80"><g
         clip-path="url(#clipPath86)"
         id="g82"><path
           id="path88"
           style="fill:none;stroke:#7f7f7f;stroke-width:30;stroke-linecap:round;stroke-linejoin:round;stroke-miterlimit:10;stroke-dasharray:none;stroke-opacity:1"
           d="m 1240.51,223.24 -82.88,-91.05 87.29,-83.076" /></g></g><path
       id="path90"
       style="fill:none;stroke:#000000;stroke-width:30;stroke-linecap:square;stroke-linejoin:bevel;stroke-miterlimit:10;stroke-dasharray:none;stroke-opacity:1"
       d="m 1007.4,23.2 h 197.59" /><path
       id="path92"
       style="fill:none;stroke:#000000;stroke-width:30;stroke-linecap:square;stroke-linejoin:bevel;stroke-miterlimit:10;stroke-dasharray:none;stroke-opacity:1"
       d="m 1315,23.2 h 359.84" /><g
       id="g94"><g
         clip-path="url(#clipPath100)"
         id="g96"><path
           id="path102"
           style="fill:#c00000;fill-opacity:1;fill-rule:nonzero;stroke:none"
           d="m 1256.61,63.916 7.9,12.754 12.75,-7.895 -7.9,-12.754 z m 15.79,25.508 7.9,12.756 12.75,-7.897 -7.9,-12.754 z m 15.79,25.506 7.9,12.76 12.75,-7.9 -7.89,-12.75 z m 15.79,25.51 7.9,12.75 12.75,-7.89 -7.89,-12.76 z m 15.79,25.51 7.9,12.75 12.75,-7.89 -7.89,-12.76 z m 15.79,25.51 7.9,12.75 12.75,-7.9 -7.89,-12.75 z m 15.79,25.5 7.9,12.76 12.75,-7.9 -7.89,-12.75 z m 15.8,25.51 7.89,12.76 12.75,-7.9 -7.89,-12.75 z m -7.39,16.57 42.82,26.42 -4.56,-50.1 z" /></g></g><g
       id="g104"><g
         clip-path="url(#clipPath110)"
         id="g106"><path
           id="path112"
           style="fill:#c00000;fill-opacity:1;fill-rule:nonzero;stroke:none"
           d="m 1509.48,63.916 119.85,193.604 12.76,-7.89 -119.86,-193.609 z m 103.15,195.124 42.82,26.42 -4.56,-50.1 z" /></g></g><path
       id="path114"
       style="fill:#c00000;fill-opacity:1;fill-rule:nonzero;stroke:none"
       d="m 1148.74,288.84 -5.79,8.09 -0.95,4.32 -0.53,3.04 -0.37,3.07 -0.23,3.07 -0.09,3.12 0.08,3.11 0.22,3.1 0.38,3.13 0.53,3.1 0.69,3.09 0.85,3.08 1,3.05 1.18,3.03 1.33,2.98 1.5,2.94 1.64,2.85 1.77,2.75 1.89,2.63 1.99,2.51 2.12,2.4 2.21,2.27 2.31,2.14 2.4,2.02 2.49,1.89 2.56,1.76 2.64,1.63 2.72,1.5 2.76,1.35 2.82,1.23 2.89,1.09 2.94,0.95 2.97,0.81 3,0.66 3.04,0.53 3.07,0.37 3.07,0.23 3.11,0.09 3.11,-0.08 3.11,-0.22 3.11,-0.38 3.12,-0.53 3.09,-0.69 3.07,-0.85 3.05,-1 3.02,-1.18 2.99,-1.33 2.92,-1.49 2.16,-1.22 2.09,-1.29 2.04,-1.37 1.99,-1.45 1.91,-1.51 1.86,-1.58 1.8,-1.67 1.73,-1.71 1.66,-1.78 1.6,-1.85 1.52,-1.91 1.45,-1.97 1.38,-2.02 1.31,-2.08 1.22,-2.14 1.08,-2.05 -13.28,-6.97 -1.01,1.92 0.13,-0.24 -1.08,1.88 0.16,-0.26 -1.15,1.84 0.14,-0.23 -1.21,1.79 0.18,-0.25 -1.29,1.74 0.15,-0.2 -1.34,1.69 0.2,-0.25 -1.41,1.63 0.18,-0.2 -1.47,1.57 0.2,-0.2 -1.53,1.52 0.2,-0.19 -1.59,1.46 0.24,-0.2 -1.64,1.39 0.2,-0.16 -1.7,1.34 0.24,-0.18 -1.75,1.28 0.24,-0.17 -1.8,1.2 0.24,-0.15 -1.85,1.14 0.25,-0.15 -1.89,1.08 0.28,-0.16 -2.6,1.33 0.35,-0.17 -2.64,1.18 0.34,-0.14 -2.67,1.03 0.38,-0.13 -2.69,0.89 0.34,-0.11 -2.71,0.75 0.37,-0.09 -2.73,0.61 0.35,-0.07 -2.74,0.47 0.37,-0.06 -2.74,0.33 0.36,-0.03 -2.75,0.19 0.35,-0.01 -2.75,0.06 0.39,0.01 -2.73,-0.08 0.35,0.02 -2.73,-0.2 0.35,0.03 -2.7,-0.33 0.37,0.06 -2.69,-0.47 0.34,0.07 -2.66,-0.59 0.35,0.09 -2.62,-0.72 0.34,0.11 -2.59,-0.84 0.34,0.12 -2.54,-0.96 0.34,0.14 -2.5,-1.09 0.31,0.14 -2.46,-1.2 0.33,0.17 -2.39,-1.32 0.31,0.18 -2.33,-1.44 0.31,0.21 -2.26,-1.56 0.3,0.21 -2.2,-1.67 0.28,0.23 -2.11,-1.78 0.28,0.25 -2.04,-1.9 0.26,0.25 -1.96,-2 0.26,0.28 -1.86,-2.11 0.25,0.3 -1.76,-2.22 0.21,0.29 -1.67,-2.33 0.22,0.33 -1.56,-2.43 0.19,0.31 -1.46,-2.53 0.19,0.33 -1.33,-2.6 0.16,0.35 -1.17,-2.63 0.14,0.35 -1.03,-2.67 0.13,0.37 -0.89,-2.7 0.11,0.35 -0.75,-2.72 0.09,0.37 -0.61,-2.73 0.07,0.35 -0.47,-2.73 0.06,0.38 -0.33,-2.75 0.03,0.36 -0.19,-2.75 0.01,0.35 -0.06,-2.74 -0.01,0.38 0.08,-2.74 -0.02,0.35 0.2,-2.72 -0.03,0.35 0.33,-2.71 -0.06,0.37 0.47,-2.68 -0.07,0.33 0.59,-2.65 -1.23,2.75 4.9,-6.84 z m 19.15,24.17 10.13,-49.28 -45.51,21.46 z" /><g
       id="g116"><g
         clip-path="url(#clipPath122)"
         id="g118"><text
           id="text126"
           style="font-variant:normal;font-weight:normal;font-size:60.02500153px;font-family:CambriaMath;-inkscape-font-specification:CambriaMath;writing-mode:lr-tb;fill:#000000;fill-opacity:1;fill-rule:nonzero;stroke:none"
           transform="matrix(1,0,0,-1,1567.1,85.525)"><tspan
             id="tspan124"
             y="0"
             x="0">풇</tspan></text>
</g></g><g
       id="g128"><g
         clip-path="url(#clipPath134)"
         id="g130"><text
           id="text138"
           style="font-variant:normal;font-weight:normal;font-size:43.82500076px;font-family:CambriaMath;-inkscape-font-specification:CambriaMath;writing-mode:lr-tb;fill:#000000;fill-opacity:1;fill-rule:nonzero;stroke:none"
           transform="matrix(1,0,0,-1,1600.9,73.325)"><tspan
             id="tspan136"
             y="0"
             x="0 13.892525 38.083923">leg</tspan></text>
</g></g><g
       id="g140"><g
         clip-path="url(#clipPath146)"
         id="g142"><text
           id="text150"
           style="font-variant:normal;font-weight:normal;font-size:60.02500153px;font-family:CambriaMath;-inkscape-font-specification:CambriaMath;writing-mode:lr-tb;fill:#000000;fill-opacity:1;fill-rule:nonzero;stroke:none"
           transform="matrix(1,0,0,-1,1172.08,405.22)"><tspan
             id="tspan148"
             y="0"
             x="0">흉</tspan></text>
</g></g><g
       id="g152"><g
         clip-path="url(#clipPath158)"
         id="g154"><text
           id="text162"
           style="font-variant:normal;font-weight:normal;font-size:43.82500076px;font-family:CambriaMath;-inkscape-font-specification:CambriaMath;writing-mode:lr-tb;fill:#000000;fill-opacity:1;fill-rule:nonzero;stroke:none"
           transform="matrix(1,0,0,-1,1202.68,393.03)"><tspan
             id="tspan160"
             y="0"
             x="0 17.135574 41.326977 55.526276">tail</tspan></text>
</g></g><path
       id="path164"
       style="fill:#dae3f3;fill-opacity:1;fill-rule:evenodd;stroke:none"
       d="m 166.7,172.53 c 0,15.67 12.7,28.37 28.37,28.37 h 283.46 c 15.67,0 28.37,-12.7 28.37,-28.37 V 59.067 C 506.9,43.4 494.2,30.7 478.53,30.7 H 195.07 c -15.67,0 -28.37,12.7 -28.37,28.367 z" /><path
       id="path166"
       style="fill:none;stroke:#000000;stroke-width:5;stroke-linecap:butt;stroke-linejoin:miter;stroke-miterlimit:8;stroke-dasharray:none;stroke-opacity:1"
       d="m 166.7,172.53 c 0,15.67 12.7,28.37 28.37,28.37 h 283.46 c 15.67,0 28.37,-12.7 28.37,-28.37 V 59.067 C 506.9,43.4 494.2,30.7 478.53,30.7 H 195.07 c -15.67,0 -28.37,12.7 -28.37,28.367 z" /><g
       id="g168"><g
         clip-path="url(#clipPath174)"
         id="g170"><text
           id="text178"
           style="font-variant:normal;font-weight:bold;font-size:60.02500153px;font-family:Arial;-inkscape-font-specification:Arial-BoldMT;writing-mode:lr-tb;fill:#000000;fill-opacity:1;fill-rule:nonzero;stroke:none"
           transform="matrix(1,0,0,-1,212.33,93.325)"><tspan
             id="tspan176"
             y="0"
             x="0 32.173401 65.547302 82.234253 98.921204 115.36805 165.36888 205.40555">Tail MPC</tspan></text>
</g></g><path
       id="path180"
       style="fill:#dae3f3;fill-opacity:1;fill-rule:evenodd;stroke:none"
       d="m 166.7,425.37 c 0,15.64 12.69,28.33 28.33,28.33 h 283.54 c 15.64,0 28.33,-12.69 28.33,-28.33 V 312.03 c 0,-15.64 -12.69,-28.33 -28.33,-28.33 H 195.03 c -15.64,0 -28.33,12.69 -28.33,28.33 z" /><path
       id="path182"
       style="fill:none;stroke:#000000;stroke-width:5;stroke-linecap:butt;stroke-linejoin:miter;stroke-miterlimit:8;stroke-dasharray:none;stroke-opacity:1"
       d="m 166.7,425.37 c 0,15.64 12.69,28.33 28.33,28.33 h 283.54 c 15.64,0 28.33,-12.69 28.33,-28.33 V 312.03 c 0,-15.64 -12.69,-28.33 -28.33,-28.33 H 195.03 c -15.64,0 -28.33,12.69 -28.33,28.33 z" /><g
       id="g184"><g
         clip-path="url(#clipPath190)"
         id="g186"><text
           id="text194"
           style="font-variant:normal;font-weight:bold;font-size:60.02500153px;font-family:Arial;-inkscape-font-specification:Arial-BoldMT;writing-mode:lr-tb;fill:#000000;fill-opacity:1;fill-rule:nonzero;stroke:none"
           transform="matrix(1,0,0,-1,283.33,382.4)"><tspan
             id="tspan192"
             y="0"
             x="0 36.675274 70.049171 106.72445">Leg </tspan></text>
</g></g><g
       id="g196"><g
         clip-path="url(#clipPath202)"
         id="g198"><text
           id="text206"
           style="font-variant:normal;font-weight:bold;font-size:60.02500153px;font-family:Arial;-inkscape-font-specification:Arial-BoldMT;writing-mode:lr-tb;fill:#000000;fill-opacity:1;fill-rule:nonzero;stroke:none"
           transform="matrix(1,0,0,-1,198.33,310.38)"><tspan
             id="tspan204"
             y="0"
             x="0 33.373901 70.049171 106.72445 126.71278 150.0625 186.73778 203.18463 219.87158 253.24547">controller</tspan></text>
</g></g><path
       id="path208"
       style="fill:#dae3f3;fill-opacity:1;fill-rule:evenodd;stroke:none"
       d="m 623.7,298.57 c 0,15.64 12.69,28.33 28.33,28.33 h 283.54 c 15.64,0 28.33,-12.69 28.33,-28.33 V 185.23 c 0,-15.64 -12.69,-28.33 -28.33,-28.33 H 652.03 c -15.64,0 -28.33,12.69 -28.33,28.33 z" /><path
       id="path210"
       style="fill:none;stroke:#000000;stroke-width:5;stroke-linecap:butt;stroke-linejoin:miter;stroke-miterlimit:8;stroke-dasharray:none;stroke-opacity:1"
       d="m 623.7,298.57 c 0,15.64 12.69,28.33 28.33,28.33 h 283.54 c 15.64,0 28.33,-12.69 28.33,-28.33 V 185.23 c 0,-15.64 -12.69,-28.33 -28.33,-28.33 H 652.03 c -15.64,0 -28.33,12.69 -28.33,28.33 z" /><g
       id="g212"><g
         clip-path="url(#clipPath218)"
         id="g214"><text
           id="text222"
           style="font-variant:normal;font-weight:bold;font-size:60.02500153px;font-family:Arial;-inkscape-font-specification:Arial-BoldMT;writing-mode:lr-tb;fill:#000000;fill-opacity:1;fill-rule:nonzero;stroke:none"
           transform="matrix(1,0,0,-1,707.23,219.52)"><tspan
             id="tspan220"
             y="0"
             x="0 43.338051 80.013329 116.6886 153.36388">Robot</tspan></text>
</g></g><g
       id="g224"><g
         clip-path="url(#clipPath230)"
         id="g226"><text
           id="text234"
           style="font-variant:normal;font-weight:normal;font-size:60.02500153px;font-family:CambriaMath;-inkscape-font-specification:CambriaMath;writing-mode:lr-tb;fill:#000000;fill-opacity:1;fill-rule:nonzero;stroke:none"
           transform="matrix(1,0,0,-1,602.47,93.525)"><tspan
             id="tspan232"
             y="0"
             x="0">흉</tspan></text>
</g></g><g
       id="g236"><g
         clip-path="url(#clipPath242)"
         id="g238"><text
           id="text246"
           style="font-variant:normal;font-weight:normal;font-size:43.82500076px;font-family:CambriaMath;-inkscape-font-specification:CambriaMath;writing-mode:lr-tb;fill:#000000;fill-opacity:1;fill-rule:nonzero;stroke:none"
           transform="matrix(1,0,0,-1,633.08,81.325)"><tspan
             id="tspan244"
             y="0"
             x="0 17.135574 41.326977 55.526276">tail</tspan></text>
</g></g><g
       id="g248"><g
         clip-path="url(#clipPath254)"
         id="g250"><text
           id="text258"
           style="font-variant:normal;font-weight:normal;font-size:60.02500153px;font-family:CambriaMath;-inkscape-font-specification:CambriaMath;writing-mode:lr-tb;fill:#000000;fill-opacity:1;fill-rule:nonzero;stroke:none"
           transform="matrix(1,0,0,-1,604.1,452.13)"><tspan
             id="tspan256"
             y="0"
             x="0">풇</tspan></text>
</g></g><g
       id="g260"><g
         clip-path="url(#clipPath266)"
         id="g262"><text
           id="text270"
           style="font-variant:normal;font-weight:normal;font-size:43.82500076px;font-family:CambriaMath;-inkscape-font-specification:CambriaMath;writing-mode:lr-tb;fill:#000000;fill-opacity:1;fill-rule:nonzero;stroke:none"
           transform="matrix(1,0,0,-1,637.92,439.92)"><tspan
             id="tspan268"
             y="0"
             x="0 13.892525 38.083923">leg</tspan></text>
</g></g><g
       id="g272"><g
         clip-path="url(#clipPath278)"
         id="g274"><text
           id="text282"
           style="font-variant:normal;font-weight:normal;font-size:60.02500153px;font-family:CambriaMath;-inkscape-font-specification:CambriaMath;writing-mode:lr-tb;fill:#000000;fill-opacity:1;fill-rule:nonzero;stroke:none"
           transform="matrix(1,0,0,-1,580.45,252.85)"><tspan
             id="tspan280"
             y="0"
             x="0">풙</tspan></text>
</g></g><path
       id="path284"
       style="fill:#000000;fill-opacity:1;fill-rule:nonzero;stroke:none"
       d="M 10.6,246.15 H 129.33 V 115.91 l -3.75,3.75 h 22.18 v -7.5 H 121.83 V 242.4 l 3.75,-3.75 H 10.6 Z m 133.41,-118.99 22.5,-11.25 -22.5,-11.25 z" /><g
       id="g286"><g
         clip-path="url(#clipPath292)"
         id="g288"><text
           id="text296"
           style="font-variant:normal;font-weight:normal;font-size:60.02500153px;font-family:CambriaMath;-inkscape-font-specification:CambriaMath;writing-mode:lr-tb;fill:#000000;fill-opacity:1;fill-rule:nonzero;stroke:none"
           transform="matrix(1,0,0,-1,18.475,261.85)"><tspan
             id="tspan294"
             y="0"
             x="0">풙</tspan></text>
</g></g><g
       id="g298"><g
         clip-path="url(#clipPath304)"
         id="g300"><text
           id="text308"
           style="font-variant:normal;font-weight:normal;font-size:43.79999924px;font-family:CambriaMath;-inkscape-font-specification:CambriaMath;writing-mode:lr-tb;fill:#000000;fill-opacity:1;fill-rule:nonzero;stroke:none"
           transform="matrix(1,0,0,-1,53.075,249.63)"><tspan
             id="tspan306"
             y="0"
             x="0 20.673599 44.8512">ref</tspan></text>
</g></g><path
       id="path310"
       style="fill:#000000;fill-opacity:1;fill-rule:nonzero;stroke:none"
       d="M 623.67,238.3 H 562.29 V 334 l 3.75,-3.75 h -38.89 v 7.5 h 42.64 v -95.7 l -3.75,3.75 h 57.63 z m -92.77,84.45 -22.5,11.25 22.5,11.25 z" /><path
       id="path312"
       style="fill:#000000;fill-opacity:1;fill-rule:nonzero;stroke:none"
       d="m 623.67,245.75 h -61.38 v -95.7 l 3.75,3.75 h -38.89 v -7.5 h 42.64 V 242 l -3.75,-3.75 h 57.63 z M 530.9,161.3 508.4,150.05 530.9,138.8 Z" /><path
       id="path314"
       style="fill:#000000;fill-opacity:1;fill-rule:nonzero;stroke:none"
       d="M 508.4,419.35 H 797.5 V 345.93 H 790 v 69.67 l 3.75,-3.75 H 508.4 Z m 296.6,-69.67 -11.25,-22.5 -11.25,22.5 z" /><path
       id="path316"
       style="fill:#000000;fill-opacity:1;fill-rule:nonzero;stroke:none"
       d="M 508.4,64.829 H 797.5 V 138.25 H 790 V 68.579 l 3.75,3.75 H 508.4 Z M 805,134.5 793.75,157 782.5,134.5 Z" /><path
       id="path318"
       style="fill:#000000;fill-opacity:1;fill-rule:nonzero;stroke:none"
       d="m 340.35,283.8 v -64.14 h -7.5 v 64.14 z m 7.5,-60.39 -11.25,-22.5 -11.25,22.5 z" /><g
       id="g320"><g
         clip-path="url(#clipPath326)"
         id="g322"><text
           id="text330"
           style="font-variant:normal;font-weight:normal;font-size:60.02500153px;font-family:CambriaMath;-inkscape-font-specification:CambriaMath;writing-mode:lr-tb;fill:#000000;fill-opacity:1;fill-rule:nonzero;stroke:none"
           transform="matrix(1,0,0,-1,224,236.8)"><tspan
             id="tspan328"
             y="0"
             x="0">풑</tspan></text>
</g></g><g
       id="g332"><g
         clip-path="url(#clipPath338)"
         id="g334"><text
           id="text342"
           style="font-variant:normal;font-weight:normal;font-size:43.82500076px;font-family:CambriaMath;-inkscape-font-specification:CambriaMath;writing-mode:lr-tb;fill:#000000;fill-opacity:1;fill-rule:nonzero;stroke:none"
           transform="matrix(1,0,0,-1,261.2,224.6)"><tspan
             id="tspan340"
             y="0"
             x="0 13.892525 38.083923">leg</tspan></text>
</g></g><path
       id="path344"
       style="fill:#000000;fill-opacity:1;fill-rule:nonzero;stroke:none"
       d="M 10.6,238.56 H 129.33 V 368.8 l -3.75,-3.75 h 22.18 v 7.5 H 121.83 V 242.31 l 3.75,3.75 H 10.6 Z m 133.41,118.99 22.5,11.25 -22.5,11.25 z" /></g></svg>